<?xml version="1.0" standalone="no"?>
<!DOCTYPE svg PUBLIC "-//W3C//DTD SVG 20010904//EN"
 "http://www.w3.org/TR/2001/REC-SVG-20010904/DTD/svg10.dtd">
<svg version="1.0" xmlns="http://www.w3.org/2000/svg"
 width="599.000000pt" height="599.000000pt" viewBox="0 0 599.000000 599.000000"
 preserveAspectRatio="xMidYMid meet">
<metadata>
Created by potrace 1.11, written by Peter Selinger 2001-2013
</metadata>
<g transform="translate(0.000000,599.000000) scale(0.100000,-0.100000)"
fill="#000000" stroke="none">
<path d="M2870 5946 c-30 -24 -70 -64 -87 -89 l-33 -45 -61 5 c-45 4 -76 15
-115 38 -41 25 -62 31 -91 28 -21 -2 -41 -9 -44 -15 -4 -7 23 -73 61 -147 118
-234 133 -308 76 -371 -18 -20 -38 -45 -43 -54 -5 -9 -22 -19 -37 -22 -132
-24 -182 -183 -96 -304 l23 -32 24 31 c33 42 57 53 99 45 l35 -6 -33 -29 c-38
-32 -116 -53 -176 -47 -23 2 -42 0 -42 -3 0 -19 93 -86 132 -95 57 -13 143 -9
196 9 42 15 43 14 36 -6 -6 -19 -3 -20 37 -14 24 4 53 9 64 12 14 4 32 -5 57
-27 55 -50 71 -90 65 -162 -7 -94 -30 -139 -85 -169 -26 -15 -41 -27 -34 -27
27 0 9 -21 -43 -51 l-55 -31 17 -30 c10 -17 24 -32 30 -35 9 -3 2 -20 -19 -51
-73 -106 -157 -159 -236 -148 l-45 6 6 -45 c4 -29 2 -53 -5 -65 -10 -16 -9
-26 5 -53 17 -32 17 -34 -3 -81 -11 -26 -23 -62 -26 -79 -8 -50 -17 -53 -103
-35 -96 20 -145 50 -172 106 -28 57 -20 87 27 102 88 30 155 88 193 170 28 62
38 187 20 256 -34 124 -138 284 -282 433 -61 63 -109 105 -272 240 -122 100
-423 236 -590 266 -166 29 -245 37 -245 24 0 -21 71 -162 110 -220 44 -65 48
-74 23 -65 -9 4 -32 9 -52 12 -20 3 -42 7 -49 9 -12 4 -153 18 -182 18 -81 -1
-82 -2 -49 -109 21 -71 99 -197 173 -281 l38 -44 -52 20 c-83 32 -155 80 -230
155 -69 67 -70 68 -71 40 -2 -58 4 -80 42 -156 21 -43 39 -79 39 -80 0 -2 -37
-2 -81 -1 -80 1 -154 -14 -211 -43 l-27 -14 50 -75 c47 -68 116 -144 179 -194
19 -16 21 -20 9 -21 -32 0 -152 42 -215 76 l-64 34 0 -50 c0 -80 47 -165 116
-211 20 -13 24 -19 14 -23 -143 -47 -181 -62 -215 -83 l-39 -26 59 -55 c98
-89 266 -192 315 -192 8 0 22 -5 30 -10 16 -11 -263 -6 -327 6 -49 8 -40 -29
21 -94 50 -53 137 -84 276 -98 l70 -7 -90 -61 c-104 -71 -235 -177 -268 -217
-26 -32 -59 -115 -49 -125 19 -20 255 -27 362 -11 17 3 57 8 90 12 l60 7 -30
-32 c-80 -84 -263 -193 -414 -243 l-71 -24 26 -26 c77 -77 281 -66 474 26 27
13 50 23 50 21 0 -2 -29 -63 -64 -136 -145 -303 -194 -445 -197 -572 -2 -91
28 -106 116 -60 128 67 339 255 547 486 l57 63 -43 -110 c-121 -313 -201 -449
-356 -608 -105 -107 -105 -111 -6 -108 36 0 70 10 112 32 113 57 209 173 344
415 l59 106 -4 -78 c-15 -294 1 -548 37 -621 15 -30 20 -29 64 9 86 76 273
401 369 643 l35 90 -2 -100 c-2 -126 -15 -188 -61 -294 -21 -47 -37 -86 -37
-88 0 -2 13 -3 28 -3 38 0 103 48 141 104 32 46 103 214 115 272 4 18 25 49
49 72 62 58 120 131 150 187 l16 30 1 -46 c0 -86 -44 -194 -101 -245 -13 -12
-41 -32 -62 -46 l-38 -25 32 -27 32 -27 -35 -32 c-38 -35 -53 -63 -38 -72 18
-11 11 -21 -56 -76 -64 -53 -65 -54 -45 -70 21 -17 20 -18 -29 -59 -48 -40
-50 -44 -34 -61 24 -27 107 -51 161 -47 27 2 50 0 53 -4 3 -4 -22 -38 -56 -75
-62 -70 -86 -108 -97 -154 -6 -21 -16 -29 -53 -38 -27 -7 -59 -25 -76 -42 -29
-29 -30 -31 -12 -44 21 -16 20 -17 -66 -84 -29 -22 -36 -46 -13 -46 26 0 22
-15 -10 -39 -19 -14 -38 -26 -43 -26 -5 0 -20 -7 -33 -16 l-24 -17 29 -11 28
-12 -33 -23 c-32 -23 -37 -23 -144 -16 -62 5 -139 9 -171 8 -45 0 -64 5 -79
20 -24 24 -79 47 -111 47 -46 0 -100 -29 -126 -68 -13 -20 -35 -48 -49 -62
-75 -78 -53 -188 42 -204 24 -4 27 -2 27 22 0 15 7 38 16 50 13 19 24 22 73
21 44 -1 69 4 98 20 33 19 46 21 88 14 l50 -8 -55 -31 c-30 -17 -73 -33 -95
-36 -54 -7 -114 -37 -137 -68 -11 -15 -20 -47 -22 -75 -2 -28 -5 -50 -6 -50
-10 0 -4 -66 8 -90 33 -68 86 -105 151 -105 46 0 60 14 37 39 -20 22 -22 111
-3 111 17 0 50 36 71 76 11 23 28 36 58 47 24 8 52 18 62 23 19 7 19 7 0 -26
-10 -18 -33 -38 -49 -45 -100 -43 -130 -149 -65 -232 11 -14 20 -33 20 -42 0
-44 56 -85 138 -101 49 -9 71 1 93 42 8 14 3 20 -26 32 -29 13 -35 20 -35 46
0 17 6 43 14 58 7 15 13 47 12 71 -1 35 4 50 24 71 14 15 54 59 89 99 l64 72
71 -3 c71 -3 71 -3 68 -30 -4 -30 10 -61 40 -94 18 -21 19 -24 4 -52 -9 -17
-20 -34 -26 -37 -30 -19 23 -45 80 -39 50 6 83 34 101 87 8 25 23 54 31 64 55
61 36 194 -30 209 -15 3 -41 12 -59 20 -17 8 -45 14 -62 14 -26 0 -31 4 -31
25 0 36 30 79 175 250 70 83 164 196 208 251 l81 102 55 -38 c46 -31 113 -60
142 -60 3 0 4 31 1 69 -4 64 -3 69 14 65 38 -9 46 9 49 113 8 194 37 283 124
374 42 45 47 48 48 27 1 -12 -3 -25 -9 -29 -6 -4 -12 -38 -14 -76 -6 -143 -18
-199 -72 -333 -14 -36 -36 -81 -49 -100 -29 -43 -19 -51 62 -49 33 1 61 -2 63
-7 4 -14 -15 -95 -32 -135 -33 -79 -142 -141 -233 -132 -34 3 -43 0 -43 -12 0
-8 -4 -15 -10 -15 -31 0 7 -121 52 -167 38 -40 104 -56 165 -42 39 8 40 7 11
-34 -58 -86 -108 -123 -175 -130 -85 -10 -139 47 -130 138 6 61 -2 77 -37 78
-37 0 -134 -78 -169 -134 -54 -88 -38 -209 39 -285 40 -41 41 -42 20 -53 -41
-23 -69 -78 -72 -142 -11 -275 303 -344 603 -133 34 24 75 61 92 81 l31 38 1
-100 c0 -55 2 -113 4 -130 2 -16 6 -52 10 -80 14 -121 67 -225 114 -225 74 0
122 175 116 422 l-3 113 53 -51 c145 -138 403 -207 538 -144 139 65 184 249
85 353 l-38 41 24 25 c68 71 87 196 44 280 -26 49 -125 137 -167 148 -43 11
-56 -8 -53 -75 3 -45 -1 -69 -14 -91 -40 -67 -134 -75 -212 -18 -29 22 -102
105 -102 117 0 3 32 5 70 6 101 1 146 38 174 144 12 48 12 56 -1 67 -8 6 -13
15 -11 20 2 4 -28 8 -67 9 -74 1 -127 21 -174 65 -27 26 -67 109 -76 158 -3
19 -8 37 -10 41 -2 4 19 5 48 2 29 -2 65 1 81 7 l29 12 -21 22 c-21 23 -83
150 -107 222 -21 60 -32 125 -39 223 -2 29 -10 60 -19 70 -10 10 -13 23 -8 30
13 21 100 -74 132 -143 37 -82 55 -174 58 -285 2 -65 8 -78 41 -83 24 -4 25
-8 24 -66 0 -33 2 -61 6 -61 31 0 109 35 147 66 l46 38 25 -30 c38 -45 142
-163 192 -219 25 -27 50 -55 55 -61 6 -6 45 -50 89 -98 107 -118 116 -131 123
-170 5 -33 4 -34 -33 -39 -76 -9 -138 -40 -157 -77 -28 -53 -18 -122 22 -164
17 -18 31 -43 31 -56 1 -67 97 -112 173 -81 l29 11 -26 31 c-31 37 -33 58 -6
89 11 13 21 30 21 39 1 15 4 42 7 69 2 8 23 12 71 12 l68 0 92 -95 c85 -89 91
-98 91 -138 0 -23 7 -54 14 -69 13 -25 20 -57 17 -84 -1 -7 -18 -19 -38 -27
l-37 -14 31 -32 c27 -26 37 -31 65 -26 86 16 143 59 154 120 3 15 14 39 25 54
32 43 26 113 -14 163 -8 10 -34 27 -58 37 -27 12 -52 33 -63 52 -14 24 -15 31
-5 27 8 -3 37 -13 66 -22 32 -11 54 -25 58 -36 10 -30 46 -71 72 -81 23 -9 25
-13 19 -55 -3 -26 -13 -55 -22 -65 -15 -17 -15 -18 10 -25 91 -22 192 58 190
150 -2 76 -13 138 -29 162 -20 32 -106 74 -149 74 -19 0 -60 13 -92 29 l-58
29 52 11 c46 10 57 9 90 -9 27 -15 53 -20 96 -19 51 2 61 -1 77 -22 11 -13 18
-34 16 -47 -5 -25 5 -27 52 -11 74 26 78 144 5 201 -12 10 -32 34 -43 52 -50
80 -187 88 -247 15 -16 -21 -28 -24 -84 -24 -59 0 -185 -12 -234 -21 -22 -4
-80 19 -91 36 -4 7 1 13 14 17 34 9 25 22 -31 47 -29 12 -59 30 -66 39 -11 13
-10 16 8 22 28 9 21 25 -21 53 -19 12 -45 32 -58 45 -20 18 -21 23 -8 25 46 9
-6 65 -76 83 -45 11 -50 16 -71 63 -13 28 -48 76 -77 107 -103 108 -101 98
-24 98 55 0 75 5 118 29 28 16 52 33 54 39 2 6 -19 25 -47 43 -27 18 -50 34
-50 37 0 2 7 11 15 19 8 9 15 18 15 22 0 4 -25 25 -56 47 -72 52 -80 61 -64
80 11 13 6 22 -32 57 l-44 42 30 26 29 27 -60 41 c-92 63 -139 143 -150 257
l-5 60 41 -62 c23 -33 70 -88 106 -122 59 -54 69 -70 106 -163 82 -208 146
-285 246 -301 l32 -5 -26 56 c-74 163 -93 239 -92 372 l0 55 14 -38 c58 -158
214 -429 341 -593 112 -145 137 -144 157 6 17 129 14 299 -9 547 -3 32 -3 55
-1 53 2 -3 33 -52 67 -110 129 -214 223 -322 335 -382 52 -28 70 -33 132 -33
39 0 75 3 79 8 4 4 -10 22 -31 40 -65 53 -153 147 -217 232 -58 76 -202 352
-247 474 l-21 55 93 -96 c196 -204 387 -359 527 -429 70 -34 81 -35 105 -9 33
36 8 169 -65 345 -35 84 -156 323 -197 388 -27 42 -26 43 25 21 201 -86 398
-92 484 -15 l31 28 -49 13 c-163 45 -370 155 -463 248 l-24 24 39 -6 c75 -13
359 -15 422 -4 61 11 63 12 57 37 -22 91 -135 193 -372 336 -48 29 -54 35 -33
36 14 0 34 2 45 4 11 2 49 9 85 16 36 6 85 21 109 32 54 25 115 86 130 128
l10 30 -57 -6 c-31 -3 -75 -8 -97 -10 -22 -2 -83 -6 -135 -9 l-95 -4 45 16
c109 41 224 118 315 212 l50 51 -23 19 c-22 18 -145 62 -210 75 l-32 7 40 45
c43 49 74 121 83 196 7 53 9 53 -73 2 -52 -32 -200 -85 -200 -70 0 1 33 36 73
76 77 78 163 207 148 222 -26 26 -120 45 -214 44 -53 -1 -97 -2 -97 -1 0 1 16
35 35 77 31 67 41 115 37 169 -2 12 -29 -10 -89 -70 -67 -67 -106 -96 -164
-125 -41 -20 -79 -37 -83 -37 -5 0 6 16 24 37 36 41 108 150 140 213 22 44 52
178 41 184 -24 14 -286 -23 -356 -50 -18 -7 -18 -6 3 27 33 49 88 159 111 219
l20 52 -57 -5 c-234 -23 -538 -144 -727 -290 -148 -115 -323 -289 -410 -407
-172 -232 -213 -436 -122 -593 44 -75 143 -146 205 -147 12 0 23 -7 23 -15 1
-8 2 -25 3 -37 3 -36 -29 -91 -70 -118 -40 -26 -149 -58 -197 -56 -28 1 -30 4
-33 45 -2 24 -12 62 -23 83 l-19 40 30 27 30 27 -31 30 c-50 45 -82 107 -85
161 -4 77 10 127 44 161 l31 31 -27 41 c-36 54 -37 116 -6 280 21 111 -2 297
-48 392 -17 36 -17 38 7 88 25 52 30 137 8 133 -51 -9 -96 -10 -100 -2 -3 4 1
22 10 39 9 18 15 49 13 73 -3 41 -4 42 -39 41 l-36 -1 0 56 c-1 53 1 58 38 86
25 19 36 35 32 45 -10 27 -4 58 33 150 20 49 34 96 31 104 -10 26 -127 -4
-172 -43 -12 -11 -34 -18 -55 -17 -19 1 -43 -2 -53 -7 -15 -7 -23 -3 -35 15
-30 41 -66 75 -122 112 -30 20 -57 36 -60 36 -3 0 -30 -20 -60 -44z m637
-5242 c64 -18 141 -20 206 -3 26 6 50 10 52 7 9 -8 -35 -67 -70 -93 -70 -54
-193 -32 -285 51 -46 41 -120 130 -120 144 0 4 37 -14 82 -41 45 -27 106 -57
135 -65z m-743 44 c-105 -148 -188 -198 -298 -182 -29 5 -52 19 -92 58 -30 29
-54 58 -54 65 0 10 4 10 13 3 16 -13 91 -25 142 -23 79 2 223 58 285 110 42
35 44 24 4 -31z"/>
</g>
</svg>
